<svg width="507" height="506" viewBox="0 0 507 506" fill="none" xmlns="http://www.w3.org/2000/svg">
<path d="M491 253C491 315.989 465.978 376.398 421.438 420.938C376.898 465.478 316.489 490.5 253.5 490.5C190.511 490.5 130.102 465.478 85.5621 420.938C41.0222 376.398 16 315.989 16 253C16 221.506 28.5111 191.301 50.7811 169.031C73.051 146.761 103.256 134.25 134.75 134.25C166.244 134.25 196.449 146.761 218.719 169.031C240.989 191.301 253.5 221.506 253.5 253C253.5 284.494 266.011 314.699 288.281 336.969C310.551 359.239 340.756 371.75 372.25 371.75C403.744 371.75 433.949 359.239 456.219 336.969C478.489 314.699 491 284.494 491 253Z" fill="white"/>
<path d="M16 253.5C16 190.511 41.0222 130.102 85.5621 85.5621C130.102 41.0222 190.511 16 253.5 16C316.489 16 376.898 41.0222 421.438 85.5621C465.978 130.102 491 190.511 491 253.5C491 284.994 478.489 315.199 456.219 337.469C433.949 359.739 403.744 372.25 372.25 372.25C340.756 372.25 310.551 359.739 288.281 337.469C266.011 315.199 253.5 284.994 253.5 253.5C253.5 222.006 240.989 191.801 218.719 169.531C196.449 147.261 166.244 134.75 134.75 134.75C103.256 134.75 73.051 147.261 50.7811 169.531C28.5111 191.801 16 222.006 16 253.5Z" fill="#3E5BA9"/>
<path fill-rule="evenodd" clip-rule="evenodd" d="M62.978 139.545C84.2839 126.068 109.14 118.75 134.75 118.75C170.355 118.75 204.502 132.894 229.679 158.071C254.856 183.248 269 217.395 269 253C269 280.384 279.878 306.646 299.241 326.009C318.604 345.372 344.866 356.25 372.25 356.25C399.634 356.25 425.896 345.372 445.259 326.009C464.574 306.693 475.446 280.513 475.5 253.203C475.421 194.432 452.041 138.085 410.478 96.5223C368.845 54.8892 312.378 31.5 253.5 31.5C194.622 31.5 138.155 54.8892 96.5223 96.5223C83.5049 109.54 72.271 124.007 62.978 139.545ZM0.50663 251.667C0.987325 185.229 27.5875 121.616 74.602 74.602C122.049 27.1553 186.4 0.499997 253.5 0.5C320.6 0.500003 384.951 27.1553 432.398 74.602C479.727 121.931 506.367 186.081 506.5 253H506.5C506.5 253.083 506.5 253.167 506.5 253.25C506.5 253.333 506.5 253.417 506.5 253.5C506.5 253.947 506.498 254.394 506.493 254.841C506.01 321.276 479.411 384.885 432.398 431.898C384.951 479.345 320.6 506 253.5 506C186.4 506 122.049 479.345 74.602 431.898C27.2732 384.569 0.632576 320.419 0.500515 253.5H0.5C0.5 253.413 0.500045 253.326 0.500135 253.239C0.50006 253.159 0.500022 253.08 0.500022 253C0.500022 252.555 0.502227 252.111 0.50663 251.667ZM31.5002 253.29C31.5556 225.982 42.4275 199.805 61.7412 180.491C81.1043 161.128 107.366 150.25 134.75 150.25C162.134 150.25 188.396 161.128 207.759 180.491C227.122 199.854 238 226.116 238 253.5C238 289.105 252.144 323.252 277.321 348.429C302.498 373.606 336.645 387.75 372.25 387.75C397.86 387.75 422.716 380.432 444.022 366.955C434.729 382.493 423.495 396.96 410.478 409.978C368.845 451.611 312.378 475 253.5 475C194.622 475 138.155 451.611 96.5223 409.978C54.9577 368.413 31.577 312.064 31.5002 253.29Z" fill="#3E5BA9"/>
<path d="M123.409 322.957C126.759 322.957 129.737 321.841 131.971 319.607L191.53 260.047C196.369 255.58 196.369 247.763 191.53 243.296L131.971 183.737C127.504 178.897 119.686 178.897 115.219 183.737C110.38 188.204 110.38 196.021 115.219 200.488L166.217 251.486L115.219 302.856C110.38 307.323 110.38 315.14 115.219 319.607C117.453 321.841 120.431 322.957 123.409 322.957Z" fill="#3E5BA9"/>
<path d="M398.277 322.957C394.926 322.957 391.949 321.841 389.715 319.607L330.155 260.047C325.316 255.58 325.316 247.763 330.155 243.296L389.715 183.737C394.182 178.897 401.999 178.897 406.466 183.737C411.305 188.204 411.305 196.021 406.466 200.488L355.468 251.486L406.466 302.856C411.305 307.323 411.305 315.14 406.466 319.607C404.233 321.841 401.255 322.957 398.277 322.957Z" fill="white"/>
</svg>
